<?xml version="1.0" encoding="UTF-8" standalone="no"?>
<!-- Created with Inkscape (http://www.inkscape.org/) -->

<svg
   width="1080mm"
   height="1080mm"
   viewBox="0 0 1080 1080"
   version="1.1"
   id="svg1"
   inkscape:version="1.3.2 (091e20e, 2023-11-25, custom)"
   sodipodi:docname="bolts3-sm.svg"
   xmlns:inkscape="http://www.inkscape.org/namespaces/inkscape"
   xmlns:sodipodi="http://sodipodi.sourceforge.net/DTD/sodipodi-0.dtd"
   xmlns="http://www.w3.org/2000/svg"
   xmlns:svg="http://www.w3.org/2000/svg">
  <sodipodi:namedview
     id="namedview1"
     pagecolor="#ffffff"
     bordercolor="#000000"
     borderopacity="0.25"
     inkscape:showpageshadow="2"
     inkscape:pageopacity="0.0"
     inkscape:pagecheckerboard="0"
     inkscape:deskcolor="#d1d1d1"
     inkscape:document-units="mm"
     inkscape:zoom="0.23275846"
     inkscape:cx="1654.0752"
     inkscape:cy="2292.0756"
     inkscape:window-width="1920"
     inkscape:window-height="974"
     inkscape:window-x="-11"
     inkscape:window-y="-11"
     inkscape:window-maximized="1"
     inkscape:current-layer="layer1" />
  <defs
     id="defs1">
    <filter
       inkscape:collect="always"
       style="color-interpolation-filters:sRGB"
       id="filter4"
       x="-0.050349075"
       y="-0.045860349"
       width="1.1006981"
       height="1.0917207">
      <feGaussianBlur
         inkscape:collect="always"
         stdDeviation="8.6475202"
         id="feGaussianBlur4" />
    </filter>
    <filter
       inkscape:collect="always"
       style="color-interpolation-filters:sRGB"
       id="filter5"
       x="-0.035074311"
       y="-0.076012261"
       width="1.0701486"
       height="1.1520245">
      <feGaussianBlur
         inkscape:collect="always"
         stdDeviation="13.480547"
         id="feGaussianBlur5" />
    </filter>
    <filter
       inkscape:collect="always"
       style="color-interpolation-filters:sRGB"
       id="filter6"
       x="-0.037178377"
       y="-0.067707955"
       width="1.0743568"
       height="1.1354159">
      <feGaussianBlur
         inkscape:collect="always"
         stdDeviation="14.347441"
         id="feGaussianBlur6" />
    </filter>
  </defs>
  <g
     inkscape:label="Warstwa 1"
     inkscape:groupmode="layer"
     id="layer1">
    <g
       id="g11"
       transform="matrix(0.65905875,0,0,0.65905875,2.0930264,297.42336)">
      <path
         id="path6"
         style="fill:#ffd42a;stroke-width:0.396999;stroke-linecap:square;stroke-miterlimit:9.4;filter:url(#filter6)"
         d="m 575.42383,499.42188 c -33.31858,65.87944 -66.63668,131.75913 -99.95508,197.63867 -88.75065,0.76197 -177.50132,1.52189 -266.25195,2.28515 -25.86325,69.22332 -51.72657,138.44662 -77.58985,207.66992 -44.934335,19.80122 -89.867925,39.60415 -134.8027312,59.4043 -1e-7,13.75 0,27.5 0,41.24998 C 53.281977,980.22412 109.74007,952.77899 166.19727,925.33203 c 24.16167,-62.66412 48.32006,-125.32952 72.48046,-187.99414 90.14129,-6.81629 180.28251,-13.63349 270.42383,-20.44922 28.77002,-63.59447 57.54039,-127.18879 86.31055,-190.7832 103.19076,1.50372 206.3815,3.00895 309.57227,4.51172 6.00636,-0.8161 12.01284,-1.63153 18.01953,-2.44531 -5.645,-1.03117 -11.22094,-2.38823 -16.81727,-3.64609 -4.02802,-0.69288 -8.13183,-0.69232 -12.19195,-1.10112 -106.13721,-8.10244 -212.27416,-16.20815 -318.41071,-24.3192 -0.0534,0.10547 -0.10677,0.21094 -0.16015,0.31641 z" />
      <path
         style="fill:#ffd42a;stroke-width:0.396999;stroke-linecap:square;stroke-miterlimit:9.4"
         d="m 0,968.49323 134.13404,-59.1099 77.29758,-206.88472 265.99463,-2.27346 100.03216,-197.79085 327.378,25.00802 L 593.37262,522.8954 506.98122,713.86591 236.43966,734.32703 163.689,923.02408 0,1002.5951 Z"
         id="path3" />
      <path
         style="fill:#ffe680;stroke-width:0.396999;stroke-linecap:square;stroke-miterlimit:9.4"
         d="M 0,978.72379 144.93297,914.4986 220.52546,715.28682 485.95171,705.62461 582.28952,511.24394 850.34444,524.45843 586.56494,518.04194 496.74155,707.73612 229.48173,728.43368 155.3322,918.32881 0,990.06696 Z"
         id="path7" />
    </g>
    <g
       id="g12"
       transform="matrix(0.8691063,0,0,0.8691063,-588.6841,31.754659)">
      <path
         id="path5"
         style="fill:#ffd42a;stroke-width:0.396999;stroke-linecap:square;stroke-miterlimit:9.4;filter:url(#filter5)"
         d="m 1921.7109,43.628906 c -47.07,56.697624 -94.1392,113.395884 -141.2089,170.093754 -42.9399,-21.47382 -85.8818,-42.94354 -128.8204,-64.41993 -36.8511,55.54306 -73.7003,111.08734 -110.5507,166.63086 -64.3341,-55.85142 -128.6673,-111.70396 -193.002,-167.55468 -88.7506,-2.66684 -177.5013,-5.33429 -266.2519,-8 -25.4635,52.03088 -50.9379,104.05669 -76.4004,156.08789 -1.7506,4.98504 -3.5028,9.96955 -5.252,14.95508 2.9334,-3.90204 6.1124,-7.61025 9.0729,-11.49023 2.37,-3.14981 4.188,-6.66681 6.3145,-9.97592 25.8136,-42.16363 51.6272,-84.32726 77.4407,-126.49089 78.8822,3.95248 157.7644,7.90495 236.6465,11.85743 -13.2945,37.3508 -26.5868,74.70243 -39.8828,112.05273 2.1214,37.0219 4.2351,74.04431 6.3535,111.06641 -46.0738,15.8922 -92.1506,31.77697 -138.2226,47.67382 -4.6537,2.31905 -9.3081,4.63646 -13.961,6.95704 4.881,-0.75884 9.7999,-1.22285 14.6943,-1.87634 3.7021,-0.62043 7.2813,-1.78567 10.9331,-2.63376 49.9249,-12.73905 99.8503,-25.47626 149.775,-38.21647 -2.7156,-41.25906 -5.4296,-82.51823 -8.1446,-123.77734 13.0762,-33.26107 26.1524,-66.52214 39.2286,-99.7832 61.8131,51.7832 123.6263,103.5664 185.4394,155.34961 3.8798,41.99997 7.7577,84.00012 11.6387,126 6.9185,-49.07051 13.84,-98.1406 20.7597,-147.21094 32.6732,-45.31901 65.3464,-90.63802 98.0196,-135.95703 38.4869,17.6414 76.9743,35.28176 115.4609,52.92382 46.9521,-48.39424 93.9029,-96.78978 140.8555,-145.183589 0,-16.735026 0,-33.470052 0,-50.205078 -0.3119,0.375651 -0.6237,0.751302 -0.9356,1.126953 z" />
      <path
         style="fill:#ffd42a;stroke-width:0.396999;stroke-linecap:square;stroke-miterlimit:9.4"
         d="M 1920,49.83491 1781.1962,217.023 1652.59,152.71989 1541.6671,319.90797 1347.1029,150.99519 l -263.5955,-7.92077 -75.5561,154.32748 83.6748,-136.66085 241.7552,12.11108 -40.8888,114.90428 6.4304,112.53047 -139.8593,48.22732 157.5426,-40.18944 -8.0379,-122.1759 40.7913,-103.74878 189.0923,158.4064 9.6455,104.49256 17.6834,-125.39107 99.6698,-138.25168 115.7456,53.05007 L 1920,91.631933 Z"
         id="path2"
         sodipodi:nodetypes="cccccccccccccccccccccc" />
      <path
         style="fill:#ffe680;stroke-width:0.396999;stroke-linecap:square;stroke-miterlimit:9.4"
         d="m 1920,63.941015 v 17.050937 l -139.7401,146.211788 -118.9302,-53.14209 -103.8687,147.06433 -8.9517,95.76943 -0.9946,-83.40749 -198.3593,-160.98927 -45.6113,112.96245 7.3888,118.21985 -116.6533,34.86124 110.5963,-37.6776 -7.4417,-112.98793 43.989,-119.68383 -250.0788,-12.86063 -56.317,93.43387 53.3028,-97.85471 258.8359,10.64627 200.7304,166.79012 110.119,-162.1644 122.107,56.07856 z"
         id="path8"
         sodipodi:nodetypes="cccccccccccccccccccccc" />
    </g>
    <g
       id="g10"
       transform="matrix(0.89541863,0,0,0.89541863,-167.91272,115.45049)">
      <path
         id="path4"
         style="fill:#ffd42a;stroke-width:0.396999;stroke-linecap:square;stroke-miterlimit:9.4;filter:url(#filter4)"
         d="m 1000.9766,632.09766 c 5.3162,2.36177 10.563,4.87848 15.9094,7.17016 4.3388,1.77341 8.812,3.19543 13.2059,4.82491 35.4042,12.69245 70.81,25.38196 106.2147,38.07329 12.1608,50.90675 24.3168,101.81466 36.4805,152.7207 65.7971,10.47134 131.5951,20.93707 197.3926,31.40625 -30.4063,48.20763 -60.812,96.41567 -91.2188,144.62303 2.4056,24.0867 4.8103,48.1734 7.2188,72.2598 15.1601,0 30.3203,0 45.4805,0 -4.7474,-21.4071 -9.4963,-42.8138 -14.2442,-64.2207 30.8425,-57.82878 61.6847,-115.65768 92.5274,-173.48635 -72.7706,-9.95442 -145.5403,-19.9145 -218.3106,-29.87109 -11.3517,-50.71561 -22.7075,-101.43031 -34.0566,-152.14649 -46.4001,-10.04847 -92.7916,-20.14102 -139.2085,-30.10876 -6.8759,-0.90501 -13.7514,-1.81221 -20.62747,-2.71546 1.07878,0.49024 2.15756,0.98047 3.23637,1.47071 z" />
      <path
         style="fill:#ffd42a;stroke-width:0.396999;stroke-linecap:square;stroke-miterlimit:9.4"
         d="m 1018.5093,636.56834 136.4075,29.55493 34.1019,152.32171 215.9785,29.55496 -90.9383,170.50936 13.6408,61.4907 h -38.6488 l -6.8204,-68.3111 93.2118,-147.77474 -200.0644,-31.82843 -36.3753,-152.3217 z"
         id="path1"
         sodipodi:nodetypes="cccccccccccc" />
      <path
         style="fill:#ffe680;stroke-width:0.396999;stroke-linecap:square;stroke-miterlimit:9.4"
         d="m 1314.5967,1080 h -14.6691 l -5.2246,-65.8194 88.9806,-155.89643 -202.622,-31.31371 -36.3753,-153.45843 -90.5831,-26.53551 95.8404,22.34382 36.2479,153.75948 205.368,31.14683 -85.6035,161.56155 z"
         id="path9" />
    </g>
  </g>
</svg>
